<svg xmlns="http://www.w3.org/2000/svg" viewBox="0 0 512 512" width="512" height="512" role="img" aria-label="Knowhere">
  <rect width="512" height="512" rx="100" fill="#12151c"/>
  <g transform="translate(-1.047, 0.985) scale(0.33996)">
    <path fill="#261210" d="M 896.078125 346.054688 C 901.078125 357.546875 901.828125 372.234375 901.710938 384.601562 C 901.316406 426.265625 901.117188 467.976562 902.492188 509.625 C 902.644531 514.238281 901.554688 517.816406 899.199219 521.742188 L 898.6875 522.613281 C 892.867188 532.300781 883.027344 542.25 875.773438 551.121094 C 859.144531 571.460938 841.179688 590.34375 823.789062 609.882812 C 792.148438 645.4375 760.585938 680.796875 729.5 716.894531 C 722.957031 724.484375 710.328125 734.183594 705.414062 743.226562 C 705.140625 743.722656 706.558594 755.5625 706.683594 757.871094 C 703.074219 754.328125 698.382812 748.78125 694.886719 744.890625 C 736.507812 699 777.675781 652.699219 818.378906 605.996094 L 863.445312 554.828125 C 898.5625 515.214844 896.105469 528.402344 895.953125 474.542969 L 895.636719 389.554688 C 895.601562 376.472656 894.660156 358.554688 896.078125 346.054688 Z M 896.078125 346.054688 "/>
    <path fill="#e8dfc7" d="M 232.484375 345.003906 C 246.785156 343.921875 263.289062 344.121094 277.742188 344.261719 C 338.882812 344.851562 400.527344 343.167969 461.613281 344.871094 C 464.722656 364.324219 462.925781 416.136719 463.203125 438.90625 C 464.042969 507.851562 461.921875 578.207031 463.433594 647.109375 C 475.191406 648.074219 495.246094 647.632812 507.484375 647.75 C 518.511719 632.808594 533.914062 615.265625 545.996094 600.527344 L 620.292969 509.792969 C 631.992188 495.511719 653.050781 471.332031 662.046875 457.210938 C 662.726562 433.371094 662.183594 409.441406 662.105469 385.59375 C 662.074219 374.976562 661.351562 363.75 662.453125 353.210938 C 662.660156 351.214844 662.886719 347.746094 664.582031 346.570312 C 669.285156 343.308594 879.558594 342.324219 896.078125 346.054688 C 901.078125 357.546875 901.828125 372.234375 901.710938 384.601562 C 901.316406 426.265625 901.117188 467.976562 902.492188 509.625 C 902.644531 514.238281 901.554688 517.816406 899.199219 521.742188 L 898.6875 522.613281 C 892.867188 532.300781 883.027344 542.25 875.773438 551.121094 C 859.144531 571.460938 841.179688 590.34375 823.789062 609.882812 C 792.148438 645.4375 760.585938 680.796875 729.5 716.894531 C 722.957031 724.484375 710.328125 734.183594 705.414062 743.226562 C 705.140625 743.722656 706.558594 755.5625 706.683594 757.871094 C 762.03125 820.175781 815.214844 884.894531 870.226562 947.542969 C 880.304688 959.015625 889.308594 970.789062 900.140625 981.710938 C 902.144531 999.1875 901.335938 1030.507812 901.3125 1049.296875 C 901.269531 1083.761719 901.800781 1119.742188 900.847656 1154.066406 C 852.546875 1155.53125 801.554688 1154.117188 753.050781 1154.621094 C 735.652344 1154.800781 681.433594 1155.609375 666.597656 1152.628906 C 664.328125 1126.660156 665.832031 1069.621094 666.179688 1042.390625 C 614.160156 976.949219 559.542969 912.480469 506.929688 847.304688 C 492.453125 847.613281 477.96875 847.738281 463.488281 847.6875 C 462.347656 877.75 463.335938 910.203125 463.09375 940.492188 C 462.53125 1011.378906 463.945312 1082.875 462.828125 1153.722656 C 436.339844 1156.09375 380.675781 1154.695312 352.511719 1154.566406 C 318.121094 1154.425781 263.945312 1156.25 231.4375 1153.632812 C 228.988281 1097.402344 230.96875 1027.507812 230.972656 969.980469 L 230.984375 621.257812 L 230.949219 439.265625 C 230.90625 418.644531 229.609375 362.425781 232.484375 345.003906 Z M 232.484375 345.003906 "/>
    <path fill="#8d9d6f" d="M 1124.898438 866.03125 C 1204.070312 860.699219 1272.5625 920.535156 1277.902344 999.675781 C 1283.230469 1078.820312 1223.363281 1147.304688 1144.203125 1152.617188 C 1065.042969 1157.941406 996.550781 1098.109375 991.21875 1018.972656 C 985.890625 939.839844 1045.738281 871.363281 1124.898438 866.03125 Z M 1124.898438 866.03125 "/>
  </g>
</svg>